<svg width="147" height="29" viewBox="0 0 147 29" fill="none" xmlns="http://www.w3.org/2000/svg">
<path d="M0 4.896L1.044 0H25.308L24.264 4.896H15.3L10.368 28.26H4.032L8.964 4.896H0Z" fill="white"/>
<path d="M34.292 28.26L31.88 21.348H27.236L25.796 28.26H19.676L24.14 7.164H35.768C40.376 7.164 43.004 9.648 42.032 14.256C41.384 17.208 39.8 19.296 37.424 20.412L40.412 28.26H34.292ZM29.252 11.844L28.244 16.668H32.096C34.256 16.668 35.48 16.308 35.912 14.256C36.344 12.204 35.264 11.844 33.104 11.844H29.252Z" fill="white"/>
<path d="M54.317 7.164H60.509L64.757 28.26H59.069L58.277 24.228H49.313L46.829 28.26H41.141L54.317 7.164ZM56.117 13.284L52.229 19.548H57.341L56.117 13.284Z" fill="white"/>
<path d="M67.286 28.26L73.262 0H94.646L93.638 4.86H78.554L77.078 11.736H91.442L90.398 16.596H76.034L73.586 28.26H67.286Z" fill="white"/>
<path d="M91.5353 28.26L95.9993 7.164H102.119L98.6273 23.58H109.931L108.959 28.26H91.5353Z" fill="white"/>
<path d="M117.949 28.26H111.829L116.293 7.164H122.413L117.949 28.26Z" fill="white"/>
<path d="M131.613 7.164L134.385 12.744L139.497 7.164H146.121L136.725 17.46L142.089 28.26H135.321L132.369 22.248L126.861 28.26H120.093L130.029 17.46L124.989 7.164H131.613Z" fill="white"/>
</svg>
